HIERARCHY
ROOT hip
{
  OFFSET 321.944 23.4767 -21.8397
  CHANNELS 6 Xposition Yposition Zposition Zrotation Xrotation Yrotation
  JOINT abdomen
  {
    OFFSET 0 20.6881 -0.73152
    CHANNELS 3 Zrotation Xrotation Yrotation
    JOINT chest
    {
      OFFSET 0 11.7043 -0.48768
      CHANNELS 3 Zrotation Xrotation Yrotation
      JOINT neck
      {
        OFFSET 0 22.1894 -2.19456
        CHANNELS 3 Zrotation Xrotation Yrotation
        JOINT head
        {
          OFFSET -0.24384 7.07133 1.2192
          CHANNELS 3 Zrotation Xrotation Yrotation
          JOINT leftEye
          {
            OFFSET 4.14528 8.04674 8.04672
            CHANNELS 3 Zrotation Xrotation Yrotation
            End Site
            {
              OFFSET 1 0 0
            }
          }
          JOINT rightEye
          {
            OFFSET -3.6576 8.04674 8.04672
            CHANNELS 3 Zrotation Xrotation Yrotation
            End Site
            {
              OFFSET 1 0 0
            }
          }
        }
      }
      JOINT rCollar
      {
        OFFSET -2.68224 19.2634 -4.8768
        CHANNELS 3 Zrotation Xrotation Yrotation
        JOINT rShldr
        {
          OFFSET -8.77824 -1.95073 1.46304
          CHANNELS 3 Zrotation Xrotation Yrotation
          JOINT rForeArm
          {
            OFFSET -28.1742 -1.7115 0.48768
            CHANNELS 3 Zrotation Xrotation Yrotation
            JOINT rHand
            {
              OFFSET -22.5879 0.773209 7.07136
              CHANNELS 3 Zrotation Xrotation Yrotation
              JOINT rThumb1
              {
                OFFSET -1.2192 -0.487915 3.41376
                CHANNELS 3 Zrotation Xrotation Yrotation
                JOINT rThumb2
                {
                  OFFSET -3.37035 -0.52449 3.41376
                  CHANNELS 3 Zrotation Xrotation Yrotation
                  End Site
                  {
                    OFFSET -1.78271 -1.18214 1.43049
                  }
                }
              }
              JOINT rIndex1
              {
                OFFSET -7.75947 0.938293 5.60832
                CHANNELS 3 Zrotation Xrotation Yrotation
                JOINT rIndex2
                {
                  OFFSET -2.54057 -0.884171 1.56538
                  CHANNELS 3 Zrotation Xrotation Yrotation
                  End Site
                  {
                    OFFSET -1.62519 -0.234802 1.16502
                  }
                }
              }
              JOINT rMid1
              {
                OFFSET -8.24714 1.18213 3.41376
                CHANNELS 3 Zrotation Xrotation Yrotation
                JOINT rMid2
                {
                  OFFSET -3.10165 -0.590103 1.0647
                  CHANNELS 3 Zrotation Xrotation Yrotation
                  End Site
                  {
                    OFFSET -2.48547 -0.328903 0.83742
                  }
                }
              }
              JOINT rRing1
              {
                OFFSET -8.82822 0.546677 1.51678
                CHANNELS 3 Zrotation Xrotation Yrotation
                JOINT rRing2
                {
                  OFFSET -2.60934 -0.819778 -0.0198488
                  CHANNELS 3 Zrotation Xrotation Yrotation
                  End Site
                  {
                    OFFSET -2.33842 -0.294052 0.168128
                  }
                }
              }
              JOINT rPinky1
              {
                OFFSET -8.27202 -0.0477905 -0.4584
                CHANNELS 3 Zrotation Xrotation Yrotation
                JOINT rPinky2
                {
                  OFFSET -1.82734 -0.647385 -0.700984
                  CHANNELS 3 Zrotation Xrotation Yrotation
                  End Site
                  {
                    OFFSET -1.69225 -0.51767 -0.607171
                  }
                }
              }
            }
          }
        }
      }
      JOINT lCollar
      {
        OFFSET 2.68224 19.2634 -4.8768
        CHANNELS 3 Zrotation Xrotation Yrotation
        JOINT lShldr
        {
          OFFSET 8.77824 -1.95073 1.46304
          CHANNELS 3 Zrotation Xrotation Yrotation
          JOINT lForeArm
          {
            OFFSET 28.1742 -1.7115 0.48768
            CHANNELS 3 Zrotation Xrotation Yrotation
            JOINT lHand
            {
              OFFSET 22.5879 0.773209 7.07136
              CHANNELS 3 Zrotation Xrotation Yrotation
              JOINT lThumb1
              {
                OFFSET 1.2192 -0.487915 3.41376
                CHANNELS 3 Zrotation Xrotation Yrotation
                JOINT lThumb2
                {
                  OFFSET 3.37035 -0.52449 3.41376
                  CHANNELS 3 Zrotation Xrotation Yrotation
                  End Site
                  {
                    OFFSET 1.78271 -1.18214 1.43049
                  }
                }
              }
              JOINT lIndex1
              {
                OFFSET 7.75947 0.938293 5.60832
                CHANNELS 3 Zrotation Xrotation Yrotation
                JOINT lIndex2
                {
                  OFFSET 2.54057 -0.884171 1.56538
                  CHANNELS 3 Zrotation Xrotation Yrotation
                  End Site
                  {
                    OFFSET 1.62519 -0.234802 1.16502
                  }
                }
              }
              JOINT lMid1
              {
                OFFSET 8.24714 1.18213 3.41376
                CHANNELS 3 Zrotation Xrotation Yrotation
                JOINT lMid2
                {
                  OFFSET 3.10165 -0.590103 1.0647
                  CHANNELS 3 Zrotation Xrotation Yrotation
                  End Site
                  {
                    OFFSET 2.48547 -0.328903 0.83742
                  }
                }
              }
              JOINT lRing1
              {
                OFFSET 8.82822 0.546677 1.51678
                CHANNELS 3 Zrotation Xrotation Yrotation
                JOINT lRing2
                {
                  OFFSET 2.60934 -0.819778 -0.0198488
                  CHANNELS 3 Zrotation Xrotation Yrotation
                  End Site
                  {
                    OFFSET 2.33842 -0.294052 0.168128
                  }
                }
              }
              JOINT lPinky1
              {
                OFFSET 8.27202 -0.0477905 -0.4584
                CHANNELS 3 Zrotation Xrotation Yrotation
                JOINT lPinky2
                {
                  OFFSET 1.82734 -0.647385 -0.700984
                  CHANNELS 3 Zrotation Xrotation Yrotation
                  End Site
                  {
                    OFFSET 1.69225 -0.51767 -0.607171
                  }
                }
              }
            }
          }
        }
      }
    }
  }
  JOINT rButtock
  {
    OFFSET -8.77824 4.35084 1.2192
    CHANNELS 3 Zrotation Xrotation Yrotation
    JOINT rThigh
    {
      OFFSET 0 -1.70687 -2.19456
      CHANNELS 3 Zrotation Xrotation Yrotation
      JOINT rShin
      {
        OFFSET 0 -36.8199 0.73152
        CHANNELS 3 Zrotation Xrotation Yrotation
        JOINT rFoot
        {
          OFFSET 0.73152 -45.1104 -5.12064
          CHANNELS 3 Zrotation Xrotation Yrotation
          End Site
          {
            OFFSET -1.1221 -3.69964 12.103
          }
        }
      }
    }
  }
  JOINT lButtock
  {
    OFFSET 8.77824 4.35084 1.2192
    CHANNELS 3 Zrotation Xrotation Yrotation
    JOINT lThigh
    {
      OFFSET 0 -1.70687 -2.19456
      CHANNELS 3 Zrotation Xrotation Yrotation
      JOINT lShin
      {
        OFFSET 0 -36.8199 0.73152
        CHANNELS 3 Zrotation Xrotation Yrotation
        JOINT lFoot
        {
          OFFSET -0.73152 -45.1104 -5.12064
          CHANNELS 3 Zrotation Xrotation Yrotation
          End Site
          {
            OFFSET 1.1221 -3.69964 12.103
          }
        }
      }
    }
  }
}
MOTION
Frames:	4
Frame Time:	0.00833333
0.734423 -102.287 7.70557 -1.46659 0.00514563 0.0277449 1.92913 -0.00172627 0.0523625 0.531878 0.00505872 0.0920873 2.60597e-014 0 6.4605e-016 7.81317e-014 3.18055e-015 1.9102e-015 -0 0 0 -0 0 0 1.32186e-014 5.39669e-017 5.46658e-016 2.7555e-013 1.0871e-015 8.54774e-015 4.74171e-012 -1.37122e-012 8.90555e-014 5.40846e-011 1.63846e-012 1.42489e-012 1.27615e-010 5.79781e-013 3.29187e-012 2.20374e-010 1.00506e-012 5.68524e-012 1.27618e-010 5.79656e-013 3.28551e-012 7.73091 5.47488 0.417314 1.27615e-010 5.79557e-013 3.30142e-012 2.90554 0.965183 0.102902 1.27621e-010 5.79755e-013 3.29824e-012 10.2786 0.731801 0.0259123 1.27611e-010 5.82042e-013 3.30778e-012 2.22167 -0.733487 -0.20892 1.30218e-014 5.35787e-017 1.49089e-016 2.72066e-013 1.0871e-015 6.95746e-015 4.69738e-012 1.46385e-012 1.11319e-013 5.40754e-011 -1.19805e-012 1.42171e-012 1.27515e-010 5.80251e-013 3.29187e-012 2.20228e-010 1.00506e-012 5.67968e-012 1.27512e-010 5.78861e-013 3.30142e-012 -7.73091 5.47488 -0.417314 1.27516e-010 5.79557e-013 3.29187e-012 -2.90554 0.965183 -0.102902 1.27514e-010 5.79954e-013 3.28869e-012 -10.2786 0.731801 -0.0259123 1.2752e-010 5.84825e-013 3.27915e-012 -2.22167 -0.733487 0.20892 -2.03217e-016 0 -3.88251e-019 1.96919 -7.2599 -0.192608 0.00405569 7.58303 0.106462 -0.531569 -0.329691 0.0534864 2.03217e-016 0 3.88251e-019 0.986318 -1.92613 0.000708972 0.00891657 -2.07861 0.0734387 0.477664 3.99813 -0.135228 
1.74906 -116.882 7.68395 -1.13788 0.133008 0.0288054 1.58119 0.171586 0.0489004 0.509666 0.351153 0.0869992 1.66717e-014 4.375 1.67778e-016 -2.84034e-011 -8.75 -8.70632e-011 -0 0 0 -0 0 0 8.49307e-015 -1.70026e-015 3.15648e-016 -2.1875 1.29107e-009 7.13277e-011 2.4598e-012 -1.99261e-012 -7.27055e-014 3.02877e-011 -5.35224e-012 -7.05835e-013 7.10285e-011 -1.59351e-011 -1.68097e-012 1.22647e-010 -2.75179e-011 -2.8994e-012 7.10322e-011 -1.59346e-011 -1.68646e-012 7.73091 5.47488 0.417314 7.10291e-011 -1.59355e-011 -1.67143e-012 2.90554 0.965183 0.102902 7.10347e-011 -1.59353e-011 -1.67374e-012 10.2786 0.731801 0.0259123 7.10253e-011 -1.59335e-011 -1.6642e-012 2.22167 -0.733487 -0.20892 8.28926e-015 -1.70076e-015 -1.09099e-016 2.1875 1.29107e-009 -7.13164e-011 3.55367e-012 -2.24748e-013 9.82742e-014 3.85935e-011 -7.33073e-012 1.44084e-012 9.14582e-011 -1.63813e-011 3.31623e-012 1.57962e-010 -2.82867e-011 5.72577e-012 9.14547e-011 -1.63819e-011 3.3249e-012 -7.73091 5.47488 -0.417314 9.14592e-011 -1.63819e-011 3.31536e-012 -2.90554 0.965183 -0.102902 9.14549e-011 -1.63815e-011 3.31522e-012 -10.2786 0.731801 -0.0259123 9.14616e-011 -1.63781e-011 3.30611e-012 -2.22167 -0.733487 0.20892 -2.03217e-016 0 -3.88251e-019 -11.6116 -5.89387 -0.0358226 0.00320965 4.95908 0.44644 6.94839 0.472598 -0.964858 2.03217e-016 0 3.88251e-019 13.5483 -2.02098 -0.0926143 -0.0338166 -2.08437 -0.304664 -6.67727 3.66534 0.865736 
1.74906 -116.882 7.68395 -0.790388 0.268177 0.0299266 1.21339 0.354801 0.0452408 0.486251 0.717024 0.0816234 6.82726e-015 9 -3.43053e-016 -8.87839e-011 -18 -1.86129e-010 -0 0 0 -0 0 0 3.49751e-015 -3.55473e-015 7.14382e-017 -4.5 2.65591e-009 1.46722e-010 4.74909e-014 -2.6495e-012 -2.4371e-013 5.13103e-012 -1.27424e-011 -2.95831e-012 1.12089e-011 -3.33937e-011 -6.93798e-012 1.93354e-011 -5.76708e-011 -1.19746e-011 1.12128e-011 -3.33926e-011 -6.94256e-012 7.73091 5.47488 0.417314 1.12094e-011 -3.33942e-011 -6.92844e-012 2.90554 0.965183 0.102902 1.12144e-011 -3.33941e-011 -6.92983e-012 10.2786 0.731801 0.0259123 1.12061e-011 -3.33927e-011 -6.92029e-012 2.22167 -0.733487 -0.20892 3.28624e-015 -3.55534e-015 -3.82039e-016 4.5 2.65591e-009 -1.46715e-010 2.3446e-012 -2.00984e-012 8.44835e-014 2.22269e-011 -1.38138e-011 1.46107e-012 5.33415e-011 -3.43122e-011 3.34197e-012 9.21378e-011 -5.92523e-011 5.7745e-012 5.33373e-011 -3.43119e-011 3.34972e-012 -7.73091 5.47488 -0.417314 5.33415e-011 -3.43126e-011 3.34018e-012 -2.90554 0.965183 -0.102902 5.33355e-011 -3.43122e-011 3.34326e-012 -10.2786 0.731801 -0.0259123 5.3343e-011 -3.43104e-011 3.33461e-012 -2.22167 -0.733487 0.20892 -2.03217e-016 0 -3.88251e-019 -25.9765 -4.44972 0.129069 0.0361963 2.18526 0.803977 14.8868 1.32003 -2.04187 2.03217e-016 0 3.88251e-019 26.8279 -2.12124 -0.191283 -0.0790743 -2.09037 -0.704375 -14.2284 3.31253 1.92312 
1.74906 -116.882 7.68395 -0.480469 0.388732 0.0309268 0.885368 0.51821 0.0419772 0.465425 1.04334 0.0768308 -1.88163e-015 13.125 -8.11429e-016 -1.72941e-010 -26.25 -2.87838e-010 -0 0 0 -0 0 0 -9.57984e-016 -5.20872e-015 -1.46371e-016 -6.5625 3.8732e-009 2.13966e-010 -2.10403e-012 -3.23538e-012 -3.96228e-013 -1.7306e-011 -1.93336e-011 -4.96728e-012 -4.21437e-011 -4.89649e-011 -1.16267e-011 -7.28075e-011 -8.45639e-011 -2.00687e-011 -4.21396e-011 -4.89632e-011 -1.16304e-011 7.73091 5.47488 0.417314 -4.21434e-011 -4.89655e-011 -1.16171e-011 2.90554 0.965183 0.102902 -4.21388e-011 -4.89655e-011 -1.16177e-011 10.2786 0.731801 0.0259123 -4.21461e-011 -4.89644e-011 -1.16082e-011 2.22167 -0.733487 -0.20892 -1.17591e-015 -5.20943e-015 -6.25473e-016 6.5625 3.8732e-009 -2.13963e-010 1.26624e-012 -3.60194e-012 7.21837e-014 7.62969e-012 -1.95961e-011 1.47911e-012 1.93455e-011 -5.03045e-011 3.36493e-012 3.34299e-011 -8.68703e-011 5.81796e-012 1.93408e-011 -5.03035e-011 3.37186e-012 -7.73091 5.47488 -0.417314 1.93447e-011 -5.03048e-011 3.36232e-012 -2.90554 0.965183 -0.102902 1.93371e-011 -5.03044e-011 3.36827e-012 -10.2786 0.731801 -0.0259123 1.93453e-011 -5.0304e-011 3.36003e-012 -2.22167 -0.733487 0.20892 -2.03217e-016 0 -3.88251e-019 -38.7956 -3.16168 0.275649 0.0948519 -0.288347 1.12326 21.9939 2.07452 -3.00342 2.03217e-016 0 3.88251e-019 38.6715 -2.21065 -0.279295 -0.11951 -2.09563 -1.06088 -20.9522 2.99726 2.86562 
